<?xml version="1.0" standalone="no"?>
<!DOCTYPE svg PUBLIC "-//W3C//DTD SVG 20010904//EN"
 "http://www.w3.org/TR/2001/REC-SVG-20010904/DTD/svg10.dtd">
<svg version="1.0" xmlns="http://www.w3.org/2000/svg"
 width="699.000000pt" height="235.000000pt" viewBox="0 0 699.000000 235.000000"
 preserveAspectRatio="xMidYMid meet">

<g transform="translate(0.000000,235.000000) scale(0.100000,-0.100000)"
fill="#FFFFFF" stroke="none">
<path d="M5524 2237 c-3 -8 -3 -56 -2 -108 l3 -94 118 -3 117 -3 0 111 0 110
-115 0 c-87 0 -117 -3 -121 -13z"/>
<path d="M2338 1963 c-38 -2 -68 -7 -68 -11 0 -4 -32 -182 -70 -397 -86 -479
-201 -1167 -196 -1172 9 -9 238 15 245 25 4 7 15 70 26 141 10 71 21 135 25
141 5 9 59 15 161 20 85 3 156 5 158 3 2 -1 14 -66 27 -144 12 -77 25 -143 28
-146 2 -3 63 -2 135 2 113 7 131 10 131 24 0 31 -241 1395 -265 1499 -5 22 -8
22 -138 20 -72 -1 -162 -3 -199 -5z m186 -648 c31 -192 56 -357 56 -366 0 -15
-17 -17 -122 -21 -68 -2 -124 -4 -125 -4 0 1 25 163 58 361 32 198 58 369 59
380 0 11 3 15 9 10 4 -6 34 -167 65 -360z"/>
<path d="M2890 1865 l0 -105 140 0 140 0 0 -658 c0 -362 2 -661 4 -663 2 -2
65 -3 140 -1 l136 3 0 660 0 659 140 0 140 0 0 105 0 105 -420 0 -420 0 0
-105z"/>
<path d="M3840 1200 l0 -770 135 0 135 0 2 327 3 327 173 -3 172 -3 0 111 0
111 -53 0 c-30 0 -109 3 -175 7 l-122 6 0 219 0 218 219 0 220 0 3 106 c2 58
1 108 -1 110 -2 2 -163 4 -358 4 l-353 0 0 -770z"/>
<path d="M1353 1953 l-203 -3 0 -115 0 -115 242 7 c206 5 241 4 236 -8 -4 -8
-47 -106 -98 -219 -105 -235 -255 -588 -341 -803 l-59 -147 0 -131 0 -131 28
6 c35 7 448 51 625 67 l138 12 -3 121 -3 121 -60 -3 c-33 -1 -145 -10 -248
-18 -104 -9 -190 -15 -192 -12 -8 8 239 590 409 963 l96 209 0 103 0 103 -182
-2 c-101 -2 -274 -4 -385 -5z"/>
<path d="M4680 1181 l0 -779 88 -6 c239 -18 580 -46 600 -50 l23 -3 -3 126 -3
126 -185 13 c-102 7 -200 15 -217 18 l-33 5 0 664 0 665 -135 0 -135 0 0 -779z"/>
<path d="M5510 1140 c0 -650 3 -810 13 -810 14 0 159 -17 220 -25 l37 -5 0
825 0 825 -135 0 -135 0 0 -810z"/>
<path d="M5930 1946 c0 -2 25 -73 56 -157 31 -85 94 -263 140 -397 l84 -243
-56 -157 c-86 -241 -245 -705 -242 -707 2 -1 48 -7 103 -14 55 -6 112 -14 126
-17 23 -4 27 -1 38 38 59 203 204 630 211 618 8 -16 153 -505 190 -645 l22
-81 131 -22 c73 -12 137 -22 144 -22 9 0 9 12 -2 48 -62 215 -146 496 -209
694 l-76 236 140 403 c77 221 140 404 140 406 0 2 -57 3 -127 3 l-128 0 -99
-295 c-55 -162 -103 -292 -106 -288 -4 5 -49 136 -99 293 -51 157 -96 288 -99
291 -7 7 -282 21 -282 15z"/>
<path d="M440 1931 l-64 -6 -38 -235 c-122 -757 -236 -1536 -226 -1546 6 -5
238 31 243 38 1 2 12 79 24 173 12 93 23 170 24 171 1 1 65 9 142 18 77 9 149
19 161 21 20 4 22 -4 43 -153 12 -86 24 -159 27 -161 4 -4 265 27 270 32 4 3
-88 576 -177 1100 -44 265 -83 499 -86 520 l-6 37 -136 -2 c-75 -1 -165 -4
-201 -7z m185 -691 c31 -206 58 -389 61 -406 l6 -31 -122 -12 c-67 -7 -124
-10 -127 -7 -3 3 18 166 46 363 58 403 73 492 77 478 2 -5 28 -179 59 -385z"/>
</g>
</svg>
